<svg xmlns="http://www.w3.org/2000/svg" viewBox="0 0 728.84 665.04"><defs><style>.cls-1{opacity:0.3;}.cls-2{fill:#f1dfc1;}.cls-3{fill:#fff;}.cls-4,.cls-5{fill:none;stroke:#fff;}.cls-4{stroke-miterlimit:2;stroke-width:1.6px;}.cls-5{stroke-miterlimit:10;stroke-width:2.43px;}</style></defs><title>globo nodos pie</title><g id="Capa_2" data-name="Capa 2"><g id="Pie"><g class="cls-1"><path class="cls-2" d="M255,6.89c1.43-1.3-.53-2.74-3.86-1.4C249.68,6.08,253.58,8.2,255,6.89Z"/><path class="cls-2" d="M263,5.46a1.65,1.65,0,0,0,1.36-1.66s-.24-1.54-2.43,0C260.19,5,261.59,5.64,263,5.46Z"/><path class="cls-2" d="M270.32,4.34c1.48-.83,1.48-.66,1.36-1.61s-2.61-.41-2.61-.41C267.35,3.27,268.83,5.17,270.32,4.34Z"/><path class="cls-2" d="M188.53,216.34c.35,1.18,3.25.07,2.77-1S187.9,214.2,188.53,216.34Z"/><path class="cls-2" d="M286.11,4.58c1.76,1.42,2.14.83,4.09.29s1.61-4.27,0-4.81-3.62,2.44-6.35,2.5-9-1.84-8.61,1.13S285.22,3.86,286.11,4.58Z"/><path class="cls-2" d="M204.92,19.64c3.08-.95,5.22-3.41,5.93-1.59s2.22.88,3.56.56,3.88-4.36,5.86-4.67c1-.16,1.29-1.65,1.34-3.09q-9.44,3.63-18.55,7.85C202.92,19.46,203.16,20.18,204.92,19.64Z"/><path class="cls-2" d="M207.51,29.75c2.08.83-1.19,3.68,2.85,2.61s6.65-8.61,9.67-9,9.09-5.76,12.89-7.48,5.52-2.14,4.75-3.45-3.45-1.9-4.69-.65-3-1.78-4.4.53-.83,3.62-5,5.82-7.6,6.53-11.28,6.77-5.88.35-8.26,2.2-1.6-4.64-8.84,8.25c-1,1.81-.65,1.78,2.37.59S205.43,28.92,207.51,29.75Z"/><path class="cls-2" d="M199.61,218.51c1.35,1,4.52-4.56,4-4.95C202,212.22,198.27,217.52,199.61,218.51Z"/><path class="cls-2" d="M197.91,192.48a.52.52,0,0,0,1-.25C199,191.56,197.55,191.35,197.91,192.48Z"/><path class="cls-2" d="M193.47,219.42c.92.16,1-2-.35-1.82C193.12,217.6,192.56,219.26,193.47,219.42Z"/><path class="cls-2" d="M196,193.66c.24-1.82-2.65-1.23-2.53-.2C193.57,194.25,195.77,195.48,196,193.66Z"/><path class="cls-2" d="M115.28,98.46c-.15,1.18,6.21,2.7,6.89.83S115.46,97.07,115.28,98.46Z"/><path class="cls-2" d="M151.49,276.93c.11-1.94-2-2.22-2.09-1S151.37,278.87,151.49,276.93Z"/><path class="cls-2" d="M288.44,166.11c-.23-.73-2.65-1.56-2.51.14C286,167.4,288.68,166.84,288.44,166.11Z"/><path class="cls-2" d="M276.51,170.27c.2-.87-2-.87-2,0C274.59,171.53,276.31,171.14,276.51,170.27Z"/><path class="cls-2" d="M114.78,100.54c-.8-1.13-2.41,0-2.44.92C112.32,102.08,115.58,101.67,114.78,100.54Z"/><path class="cls-2" d="M332.67,176.32c-1.32-.83-3.34.83-5.54.77s-4.93-2.85-5.34.12c-.49,3.5,3,2.08,5.16,3.74s3.39,2.91,5,2.32.06-1.78,0-4S334,177.15,332.67,176.32Z"/><path class="cls-2" d="M305.84,171.93c3,.24,4.31-5,3.88-8s.83-11.75-2.62-9.41c-1.18.8-1,3.95.32,4.27s.43,2.89-.53,3.13-2.67.55-2.4,2.53S302.87,171.69,305.84,171.93Z"/><path class="cls-2" d="M283.6,168.8c1.1-.43.39-3.44-2.46-1.07C279.89,168.78,282.49,169.24,283.6,168.8Z"/><path class="cls-2" d="M151.21,272.93c.39-1.38-.59-2.26-1.54-1.5S150.81,274.32,151.21,272.93Z"/><path class="cls-2" d="M144.32,271.78c-.14,1.22,2.22,1.35,2.34,0S144.44,270.75,144.32,271.78Z"/><path class="cls-2" d="M301,15.2c.47-1.26,8.94-.23,8.79-1.34s-8.87-.64-9.19-2,6.18.47,5.54-1.43S302.2,9,299.9,8.87s-3.24.48-5.94,0-5.22-2.45-10-2.37-6.09,1.26-9.1,1.5-4.2-2.38-6.65-1.51.55,3.17-2.14,3.81-2.93-1.59-5.3-.56-.4,1.77-1.5,4.17-10.06,5.25-13.3,8.34-5,6.09-11.8,8.47-8.31,1.66-12.9,3.88-8.78,4.9-8.9,7.2-3.37.79-4.71,2.37S197.08,52,200.72,55.89c.86.91-3.24,2.93,0,4.27s8.63-7.44,11.6-7.52,10.41-6.57,14-6.65,8.23.64,10.21-.63,8.15-3.72,10.29-3.72S266,41,265.55,39.42s-8.15-2.73-1.15-4.59,2.18,1.59,3.48,2.46,5.07-2,4.16-3.6-3.44-2.3-.32-3.88,6,2.25,9.5-1.71,4.28-.47,5.15-2.13.15-3.56,3.48-4,2.06.63,4.51-2.53S300.53,16.47,301,15.2Z"/><path class="cls-2" d="M138.43,88.18c-1.94,1.71-1.23,2-3.21,2.54-2.8.78-3.52.63-3,2s3.09,3.13,5.94,2.77,2.61-3.28,4.23-3.79-1.18-2.38-.19-3.57S140.36,86.48,138.43,88.18Z"/><path class="cls-2" d="M143,268.18c.31-2-3.1-1-2.54,0S142.7,270.16,143,268.18Z"/><path class="cls-2" d="M45.46,228.17c.63-.08.31-1.54-.44-1.47C44.67,226.74,44.82,228.25,45.46,228.17Z"/><path class="cls-2" d="M44.12,224.69c1.06-.08,1.15-1.31,0-1.51C43.51,223.09,43.06,224.77,44.12,224.69Z"/><path class="cls-2" d="M43.94,230.82c-1,0-.72,2.14.18,2.14S45.22,230.88,43.94,230.82Z"/><path class="cls-2" d="M42.57,219.15c-.62.07-.28,1.93.91,1.78S44.55,218.91,42.57,219.15Z"/><path class="cls-2" d="M43.18,243.47c-1.07.83-.77-.48-1.72,0-1.28.64.24,2.85,1.48,2.85S44.25,242.63,43.18,243.47Z"/><path class="cls-2" d="M38.2,254.09c.62,1.16,2-1.07,1.24-1.48S37.42,252.67,38.2,254.09Z"/><path class="cls-2" d="M43.94,239c-.64-.83-.22-3.08-1.17-3.32,0,0-2.4,5.7-.84,5.94S44.57,239.84,43.94,239Z"/><path class="cls-2" d="M41.34,249.16c1.19,0,.42-2.43-1-1.72C39.77,247.73,40.15,249.16,41.34,249.16Z"/><path class="cls-2" d="M607.87,282.59c-2.63-.07-.41,16,2.2,15.73S611.31,282.68,607.87,282.59Z"/><path class="cls-2" d="M596.78,143.84A306.92,306.92,0,0,0,419.54,3.41l0,.08s-3.16,3.4.72,7.12.79,2.77-4,0-7.84-7.36-11.95-4.35,1,3.07,1.58,6.8,4.27,3.17,5.7,4.91-2.3,1.59-.24,3.49,9.34,2.45,12.35,3.16,5.62,1.74,4.59,2.93-11.08-4.35-11.24-.63,8.71,7.75,9.82,6.41,7.52.32,7,1.5-4.27-1.11-4.67,0,8.31,6.89,5.54,7.36-2.14-4.11-12.43-8-10.29-7.2-13.77-7.28-.47,3.56,4.59,6.25,15.36,6.25,2.46,4.43-.32,3.72-4.44,3.72-1.34,4.36-6.25,2.85-4.91-1-7,1.19.15,3.88-1.83,5.15-2.69-4.44-6.41-3.57,4,5.39,3.09,6.26-4-.08-5.94,2.45,2.3,2.38,2.14,3.8-4-.79-4.83,1,1.11,3.17-6.17,1-1.19-3-3.8-5.15-6.57-.71-6.41-2.61,17.57,3.25,17.33-1-23.51-14.64-40-9.1-19.63,21.37-23.27,22.79S305.52,70,305.52,76.63s3.64,12.66,10.61,7.44,5.38,12,11.71,12.35,9.66-9.82,9.5-12.35,6.33-.16.63-7.13,6.5-9.34,7.6-12.5.16-7.13,5.86-6.81,2.85,4.75-1.58,8.55-.79,7.76-1.59,9.66,3.8,3.48,8.08,2,12.66-4.27,13,0S357.61,79.16,355.71,82s6.33,6.17,2.85,7.91-4.6-3.64-7.6-1.1,1.64,9.38-.14,10.39-2.26-.3-2.85,0-1.31,3.32-3.5,3,.11-1.3-3.15-2.13-7.66,4.86-11.81,4.57-2.3-2.24-4.6-2.24-4.73,3.42-8.29-.26-.95-6.11.06-6.82,3.74-1.49,1.66-2.26,1.49-3.56-.53-4.45-1.84,2-2.85,2.08-4.45.47-3.86,4.15,3.74,7.9,1.49,9.32-7.07-.53-9.62,1.43-.36,4.21-4.34,6.94-6.82,2-9.14,3.09-2.79,5.11-6.94,5.82-5.64-1.55-7.07-1,.71,3.32-1.13,3.8-10-2.79-10.33.47,4.69,1.72,6.12,4.93-.36,3.09,2.85,5.17-1.43,13.83-4.39,14.07a33.37,33.37,0,0,1-12.35-1.13c-4.93-1.49-11.28-4-12-1.72s-4-1.56-3.92,3-.48,8.46-2,10.66-7.72,7.78-5.23,8.9-1.36,6.3,1,7.78,6.3-1.66,8.14,0-1,3.86,2,4.93,3.78-1.54,8.21-1.7,5.62,1.34,7.64-.08,9.7-7.16,9.58-8.88-2.76-3.8,3.24-8.19,10.48-2.82,11.55-7.24,1-6.09,5.73-6.09,5.1,3.86,10.74.72,7.18-5.53,9.62-3.69,2.55,7,6.41,9.38,4.27,3.92,9.91,5.94,10,7.6,9.26,10.27-1.54,4.63.24,5.23.6-2.79,2.5-5.11-3-4.27-.72-7,6.59,3.8,7.25,2.74-3.57-5.41-11-8.43-5.1-6.42-10.09-9.62-5.4-8.13-1.07-9.38,2.26,2.31,3.33,3.2,2.55-2.13,4.51-.35-.42,4.51,9.08,9,10.57,7.78,10.21,9.74,0,5.93,5,9,3.32,4.34,7,2.61-2-7.65,1.13-9.79,12.29-2.91,14.61-.89,7.3-2.14,5.81-4.69-1.66-8.25.66-14.9,2.85-9.26,7-9.44.54,2.67,5.23,2.14,18.28-9.27,20.54-6.83-2.79,1.36-1.72,3.38-3.63,3.39-1.73,6.18,21,8.31,20.55,12.76-6.36,6.47-11.19,6.71-7.44-4-15.59-3.48-8.23,5.3-11.48,5.85-4.27,0-7.44,2.93-7.36.56-9.18,2.3,2.06,3,2.22,4.59-.4,3,1.9,4.83.16,4.67,2.29,5.46,2.69-.71,4.75.32,1.66,3.24,4.51,3.08,1.59-4.67,5.15-4.59,3.48,4.77,7.52,4.6,5-4.28,7.91-4.36,5.86-.71,5.47,2.69,2.13,4.43,1.58,6.73-2.53,4.83-3,7.91,1.11,11.24-4.27,12-5.31-1.83-11.24-1.19-5.23,3.72-8.31,4.11-5.15-3.24-11.8-3.08-6.65-2.3-11.71-2.46S365,199.4,358.56,203s-.32,11.47-6.34,12.58-5.85-1.5-9.26-3-6.17,0-8-1.34-2.93-5.23-7.44-7-9.34.48-12.51-1.5-9.58-5.15-4.51-8.07,4.11-5.31,3.09-7,.31-7-4.52-7.36-5,2.53-7.6,1.82-7.91,1.9-10.52.4-12.59-2.3-21.3,1.66-13.69,5-18.52,3.48-3.88-2.77-7.44-2.93-.87,4.75-5.78,7.36-5.14,1.51-8.55,3.49-8.54,10.29-8.31,13.29-1.66,7-6.73,8.32-7.59,1.5-10,3.4-3.24,6.33-5.3,6.81-2.93,6-9.9,11.63-9.18,12.9-7.6,17.26-.79,4.43-.87,6.49,1.59,6.41,0,10.68S173,283.3,173,286.55s2.53,4.43,2.13,6.41-2.69,4.43-.47,8,4.35.79,5.14,2.06-1.82,1.82,2.3,7.2,3.72,3.56,5,7.28.95,7.29,3.08,9.82,15.75,19.31,23.51,20.18,7.92-2.84,14.65-2.37,9.81,3.32,13.77,3.17,29-11.16,34-6,2.85,8.35,7.95,10.37,9.5-3.21,12.76-1.37,9.21,5.64,5.64,16-4.15,12.95-2.61,15.91,17.1,20.54,20.74,31.47,6.33,21.53.79,26-8.82,19.75-6.33,24.26,12.11,14.84,13.77,20.78.48,13.95,3.86,18.7,7,5.52,10.21,11.4-.77,9.2,4.69,13.59,43.62.56,56.6-16.22,8.39-18.53,12.82-20.43,7.64-1,11.2-5.38-3.85-17.57,7.16-25.17,18.13-7.36,20.86-13.89,5.23-20.19,5-22.56,1.31-4-1.07-4.75-1.19-11.52-1.9-14.48-3.92-4.4-3.56-6.18,8.71-17.93,16.15-27.11,21.53-21.05,24.69-27.55,18.68-43.37,12.35-44.8-21,14.57-30.24,10.45-2.05-4.43-3.64-8.47-4.59-3.08-7.75-7.12-11.32-4.87-13.58-9.62-1.31-7.84-4.16-10.68-4.51-.48-6.41-4.4-1.18-10.8-4.15-15.08-6.77-3.56-7.84-6.76-.28-5.07-3.13-8.55-18.36-21.38-15-24.54,4.43,8.86,8.23,8.63,0-6.73,1.9-6.81-.56,3.72,2.29,5.3,10.53,16.7,15.6,18.45,7.12,17.57,12.66,19.94,8.23,10,12.35,12.19,6.49,24.38,10.61,25.49,15.83-4.91,18.68-8.87,9.18-4.9,13.14-10.76,10-8.23,9.34-10.45,3.87.16,4.35-3.56,4-1.11,4.35-4.27,4.52-5.23,3.33-7.92,1-3.72,1.34-7.44,1.74-10.21-3.08-13.14-8,.63-10.53-4.75-2.3-5.54-3.56-5.62S510.85,233.51,507,233s-3.64,2.69-7.2,1.26-1.82-9.1-4.2-9.5.87,6.79-2,5.13-2.43-5.11-4.27-7.72-15.44-12.17-11-16.2,13.53,9.91,16.38,9.38,3.84,4.11,8.83,3.87,6.73-5,9.73-4.82.16,5.62,5.62,6.17,11.72,1.19,18.53-1.74,10.68-6.18,13.06-3.09,9.49,10.37,12.58,8,2.69,2.61.79,2.92-2.37,2.14-.79,2.7,2.93,4.19,6.1,4.11-2-9.42,2.29-9.42,7.68,28,15.87,37.84,9.86,28,13.54,28.73,5-15,3.32-25.53-5.52-12.64-3.14-17.57,5-27.43,4.53-30.51-3-9.11-.87-9.34-1.43-7.21,1.58-7.84,11.79,26,15.28,26.44-1-4.43,2-5,2.1,13.59,4.87,14.3A303.81,303.81,0,0,0,596.78,143.84Z"/><path class="cls-2" d="M469.13,486.45c4,3.09,4.63-1.19,10.1-1.9s7.83-18.64,12.23-23.15,8.19-21.61,9.85-20.78,1.39-16.12-1.54-13.89c-2.5,1.9-5,3.92-5.23,6s-.47,4.52-5.81,9-10.81,3.32-13.18,7.6-.12,16-6.06,20.77-1.66,6.18-2.37,8.79S465.1,483.36,469.13,486.45Z"/><path class="cls-2" d="M41.4,210.64c.18,3.68-.55,6.29,1.36,6.05s1.69-11.63.49-14.72c-.33-.85-1-2.25-1.73-3.83q-4,11.81-7.06,24A22.68,22.68,0,0,0,37.31,216C39.68,208.38,41.22,207,41.4,210.64Z"/><path class="cls-2" d="M91.8,482.53C92,479.09,89,476.6,89,472.92s-5.81-13.78-5.58-17.81,2.14-1.19,8.67-4-4-40.85-1.54-41.2,1.42-5.82,5.82-11.4,1.18-20.42-1.43-23.57-6.53-1.72-8.37-6.88-4.39-10.1-9.08-10.16-4.57-3.14-7.19-5.22-4.45,1.19-3.38-.89-5.64-13.65-8.49-13.65-3.62,6.58-3.74,5.1-3.86-1.6-5.11-3.32,1.61-.24,1.78-2.38-3.56-5-.65-8.61-4.77-35.22-7.77-35.06-7.13-36.1-9.82-36.89c-2.14-.63-3.37-6.94-3.79-9.52A306.71,306.71,0,0,0,61.51,441.16,306.12,306.12,0,0,0,92,484.65,6.44,6.44,0,0,1,91.8,482.53Z"/><path class="cls-2" d="M123.31,90.64c.87-2.77,8.78-5.94,9.34-9s-5.07,2.46-4.44-1.18,2.22-1.43,4.48-2.38,4.39-3.72,5.74-.63S140,81,142.07,81.3s4.35-2.42,6-2,3.72,1.38,4.79-.67,6-3.76,5.66-5.62-5.9-.2-4-3.41,4.59,2.18,6.14-.87-.75-2.26-.32-3.64,2.32-4.31,7.54-6.87,9.68-8,9-8.78-5.4,1.6-6.58,0,18.58-12.23,17.21-14.9-24.69,14.6-28.18,15.23S141.43,62.54,140,61.35s17.57-13.93,17.57-13.93l-.79-2.18a307.59,307.59,0,0,0-77.3,77.54c6.42-8.22,12.81-15.71,15.64-16.93,6.65-2.84,5.82-.83,7.6-3s5.62-7.92,12.9-7.92S122.44,93.41,123.31,90.64Z"/><path class="cls-2" d="M251.69,56.4c-.07,3.62.4,5.52,6.46,4.22s10.62-2.91,10.86-5.46-7.42-1.84-11.1-2,1.07-2.26-.48-3-4.51-.18-5.52,1.13c-1.23,1.6,3.45.59,3.51,1.78S251.76,52.78,251.69,56.4Z"/><path class="cls-2" d="M285.74,111.38c2.09-.84,3.75-2.68,3-3.57s-3.09.48-4.1-.89,1.22-3,.15-4.75-2.28-1.81-3.06-3.68.51-3.08-.77-4.06-2.31-1.7-.5-3.33,4.21-2.34,3.23-3.74-4.51-.92-4.36-2.11,4.48-2.93-2.17-2.61c-2,.1-2.73,3.45-3.62,3.8s-3.08-.77-1.66-1.9.83-2.13-1.37-.77-4.2,3.31-1.49,2.74,4.52,2.43,2.86,2.78-.48,2.26.56,3,1.15,3.5,0,3.8-2.22.59-1.63,1.54,4.93-1.13,5.23.3.59,5.76-1.67,5.88-2-.77-3.2.47.83,2.32-.42,3.39-3.92.23-4.15,2.13,3,.42,3.56,1.49,4.15,0,3.38,1.07-3,0-5.34.65-.36,1.6-2.2,2-4.51.71-3.62,2.13,2.67-.65,4.69-.29,2.73-1.84,4.22-1.9.83,1,3.91.77,11.17.77,10.45-1.6S283.64,112.21,285.74,111.38Z"/><path class="cls-2" d="M251,108.41c.56,3,6.89-1.78,9.5-.89s1.9.59,2.67-.48,1.49-4.27,3.09-6.65,3.74-2,2.43-4.15a3.88,3.88,0,0,0-6.35,0c-1.72,2.25-.48,2.37-2.29,2.49s-3.23-1-4.77,1.49,2.73,1.84,1.42,3.32S250.73,107.1,251,108.41Z"/><path class="cls-2" d="M289.69,78.05c.75-.08.32-3-1.74-1.46C287,77.29,288.94,78.13,289.69,78.05Z"/><path class="cls-2" d="M277.34,72.23c1.39,0,3.05-4.07-.24-4C274.91,68.36,276,72.23,277.34,72.23Z"/><path class="cls-2" d="M325.47,21.77c1.78,1.07,3.52.44,4-.71s-1.14-2.62-2.54-2C325.05,19.87,323.69,20.7,325.47,21.77Z"/><path class="cls-2" d="M391.54,42.13c-.56,1.29.66,2.16,1.84,2.13s2.64-.92,2-1.93S392,41.18,391.54,42.13Z"/><path class="cls-2" d="M293,40.45c.24-1.34-3.16-2.37-3,0C290.09,41.69,292.78,41.8,293,40.45Z"/><path class="cls-2" d="M388.75,26.72c-1.79-7.33,1.31-5.46.36-7.6-1.22-2.75-2.26,1.6-3.21,2.73s-1.84,2.5-.47,5.17,3.09,8.84,11,9.73S390.55,34.05,388.75,26.72Z"/><path class="cls-2" d="M338.29,19.36c.94,3.08,6.65,0,5.07-1S337.42,16.51,338.29,19.36Z"/><path class="cls-2" d="M332.32,25.1c2.84,1.58,4.07-4.08,2.29-6.06C333.62,17.94,329.47,23.51,332.32,25.1Z"/></g><g class="cls-1"><path class="cls-3" d="M235.25,44.74a9.78,9.78,0,1,1,10.47-9.05A9.79,9.79,0,0,1,235.25,44.74Z"/><path class="cls-3" d="M135.08,326.48a9.78,9.78,0,1,1,10.47-9A9.78,9.78,0,0,1,135.08,326.48Z"/><path class="cls-3" d="M138.94,202.94a9.79,9.79,0,1,1,10.47-9A9.79,9.79,0,0,1,138.94,202.94Z"/><path class="cls-3" d="M301.29,264.36a9.79,9.79,0,1,1,10.47-9.05A9.8,9.8,0,0,1,301.29,264.36Z"/><path class="cls-3" d="M319.6,66.65a9.78,9.78,0,1,1,10.47-9A9.76,9.76,0,0,1,319.6,66.65Z"/><path class="cls-3" d="M295.88,399.08a9.78,9.78,0,1,1,10.47-9A9.79,9.79,0,0,1,295.88,399.08Z"/><path class="cls-3" d="M226.19,275.52a9.79,9.79,0,1,1,10.47-9A9.79,9.79,0,0,1,226.19,275.52Z"/><path class="cls-3" d="M9.07,255.57a9.79,9.79,0,1,1,10.47-9A9.78,9.78,0,0,1,9.07,255.57Z"/><path class="cls-3" d="M232.19,179.33a9.78,9.78,0,1,1,10.47-9A9.78,9.78,0,0,1,232.19,179.33Z"/><path class="cls-3" d="M550.3,212.18a9.79,9.79,0,1,1,10.47-9.05A9.79,9.79,0,0,1,550.3,212.18Z"/><path class="cls-3" d="M420.53,361.5a9.78,9.78,0,1,1,10.47-9A9.76,9.76,0,0,1,420.53,361.5Z"/><path class="cls-3" d="M383.7,216.65a9.79,9.79,0,1,1,10.48-9.06A9.8,9.8,0,0,1,383.7,216.65Z"/><path class="cls-3" d="M420.12,56.75a9.78,9.78,0,1,1,10.48-9A9.78,9.78,0,0,1,420.12,56.75Z"/><path class="cls-3" d="M440.38,130.84a9.78,9.78,0,1,1,10.47-9A9.78,9.78,0,0,1,440.38,130.84Z"/><path class="cls-3" d="M321.3,146.15a9.78,9.78,0,1,1,10.48-9.05A9.79,9.79,0,0,1,321.3,146.15Z"/><line class="cls-4" x1="235.96" y1="34.98" x2="68.02" y2="137.57"/><line class="cls-4" x1="439.37" y1="121.54" x2="527.94" y2="60.42"/><line class="cls-4" x1="421.24" y1="351.75" x2="326.53" y2="486.97"/><line class="cls-4" x1="572.36" y1="520.58" x2="326.53" y2="486.97"/><line class="cls-4" x1="360.54" y1="585.91" x2="421.24" y2="351.75"/><line class="cls-4" x1="562.33" y1="381.09" x2="421.24" y2="351.75"/><line class="cls-4" x1="571.35" y1="523.49" x2="421.24" y2="351.75"/><line class="cls-4" x1="296.6" y1="389.32" x2="421.24" y2="351.75"/><line class="cls-4" x1="326.53" y1="486.97" x2="294.52" y2="387.11"/><line class="cls-4" x1="140.57" y1="434.11" x2="295.89" y2="387.84"/><line class="cls-4" x1="135.79" y1="316.72" x2="140.57" y2="434.11"/><line class="cls-4" x1="135.74" y1="316.19" x2="6.53" y2="246.61"/><line class="cls-4" x1="226.9" y1="265.76" x2="135.86" y2="318.53"/><line class="cls-4" x1="295.89" y1="387.84" x2="132.9" y2="316.96"/><line class="cls-4" x1="139.66" y1="193.18" x2="134.79" y2="315.68"/><line class="cls-4" x1="232.91" y1="169.57" x2="134.79" y2="315.68"/><line class="cls-4" x1="226.9" y1="265.76" x2="302" y2="254.6"/><line class="cls-4" x1="298.55" y1="390.36" x2="226.55" y2="264.76"/><line class="cls-4" x1="140.57" y1="434.11" x2="226.55" y2="264.76"/><line class="cls-4" x1="139.66" y1="193.18" x2="226.55" y2="264.76"/><line class="cls-4" x1="10.14" y1="246.5" x2="227.22" y2="265.93"/><line class="cls-4" x1="423.17" y1="352.77" x2="384.42" y2="206.89"/><line class="cls-4" x1="302" y1="254.6" x2="419.4" y2="352.31"/><line class="cls-4" x1="322.02" y1="136.39" x2="302" y2="254.6"/><line class="cls-4" x1="232.91" y1="169.57" x2="322.02" y2="136.39"/><line class="cls-4" x1="384.42" y1="206.89" x2="322.02" y2="136.39"/><line class="cls-4" x1="302" y1="254.6" x2="232.91" y2="169.57"/><line class="cls-4" x1="227.22" y1="265.93" x2="322.02" y2="136.39"/><line class="cls-4" x1="384.42" y1="206.89" x2="303.96" y2="254.29"/><line class="cls-4" x1="298.55" y1="390.36" x2="302.31" y2="252.75"/><line class="cls-4" x1="551.01" y1="202.42" x2="384.42" y2="206.89"/><line class="cls-4" x1="717.5" y1="224.07" x2="551.01" y2="202.42"/><line class="cls-4" x1="624.64" y1="132.33" x2="551.01" y2="202.42"/><line class="cls-4" x1="441.1" y1="121.09" x2="551.01" y2="202.42"/><line class="cls-4" x1="423.17" y1="352.77" x2="551.01" y2="202.42"/><line class="cls-4" x1="720.45" y1="225.44" x2="423.17" y2="352.77"/><line class="cls-4" x1="701.37" y1="438.5" x2="551.01" y2="202.42"/><line class="cls-4" x1="571.35" y1="523.49" x2="551.01" y2="202.42"/><line class="cls-4" x1="442" y1="120.45" x2="322.02" y2="136.39"/><line class="cls-4" x1="320.31" y1="56.9" x2="442.37" y2="122.03"/><line class="cls-4" x1="420.84" y1="47" x2="320.31" y2="56.9"/><line class="cls-4" x1="627.2" y1="129.7" x2="440.99" y2="121.29"/><line class="cls-4" x1="718.56" y1="224.64" x2="625.98" y2="132"/><polyline class="cls-4" points="442 120.45 421.38 45.98 527.94 60.42 551.01 202.42 296.2 390.06"/><line class="cls-4" x1="320.31" y1="56.9" x2="322.02" y2="136.39"/><line class="cls-4" x1="237.27" y1="34.48" x2="322.02" y2="136.39"/><line class="cls-4" x1="232.91" y1="169.57" x2="237.27" y2="34.48"/><line class="cls-4" x1="138.36" y1="193.16" x2="232.91" y2="169.57"/><line class="cls-4" x1="68.04" y1="137.57" x2="234.09" y2="170.21"/><line class="cls-4" x1="236.68" y1="34.17" x2="138.36" y2="193.16"/><line class="cls-4" x1="8.72" y1="246.05" x2="139.1" y2="191.96"/><line class="cls-4" x1="135.86" y1="318.53" x2="68.04" y2="137.57"/><line class="cls-4" x1="139.1" y1="191.96" x2="69.02" y2="137.76"/><line class="cls-4" x1="719.64" y1="224.11" x2="361.52" y2="582.11"/><line class="cls-4" x1="442" y1="120.45" x2="384.42" y2="206.89"/><line class="cls-4" x1="562.33" y1="381.09" x2="384.42" y2="206.89"/><line class="cls-4" x1="235.87" y1="33.09" x2="320.31" y2="56.9"/><line class="cls-4" x1="231.79" y1="168.98" x2="320.31" y2="56.9"/><line class="cls-5" x1="423.17" y1="352.77" x2="499.76" y2="664.75"/><path class="cls-3" d="M561.61,390.84a9.78,9.78,0,1,1,10.47-9A9.78,9.78,0,0,1,561.61,390.84Z"/><line class="cls-4" x1="702.73" y1="438.18" x2="562.33" y2="381.09"/><line class="cls-4" x1="499.76" y1="664.75" x2="562.33" y2="381.09"/><line class="cls-4" x1="625.98" y1="132" x2="562.33" y2="381.09"/><path class="cls-3" d="M622.33,142.61a9.78,9.78,0,1,1,10.47-9A9.78,9.78,0,0,1,622.33,142.61Z"/><path class="cls-3" d="M66.94,145.8a9.79,9.79,0,1,1,10.48-9.05A9.79,9.79,0,0,1,66.94,145.8Z"/><path class="cls-3" d="M718.34,234.61a9.78,9.78,0,1,1,10.48-9A9.78,9.78,0,0,1,718.34,234.61Z"/><path class="cls-3" d="M526.53,70.06A9.79,9.79,0,1,1,537,61,9.79,9.79,0,0,1,526.53,70.06Z"/></g></g></g></svg>